<?xml version="1.0" encoding="UTF-8"?>
<svg id="Layer_2" data-name="Layer 2" xmlns="http://www.w3.org/2000/svg" viewBox="0 0 14.53 21.91">
  <defs>
    <style>
      .cls-1 {
        fill: #d6d6d6;
      }
    </style>
  </defs>
  <g id="Layer_1-2" data-name="Layer 1">
    <g>
      <path class="cls-1" d="M5.09,9.07c-.06.05.26.3.31.34.41.27.89.25,1.27-.05-.48-.22-1.06-.32-1.58-.28ZM8.06,12.42c-.32-.11-.55-.33-.8-.54-.24.21-.47.43-.77.57-.09,0,.05-.35-.14-.38-.23-.04-.11.26-.15.39-.02.08-.39.33-.22.41.03.01.05.01.08.01.07,0,.38-.14.46-.18.29-.13.5-.3.74-.5.14.11.26.23.42.33.12.07.72.34.82.33.23-.03-.13-.33-.16-.39-.06-.13.03-.3-.06-.37-.06-.05-.13-.04-.2,0l-.03.34ZM6.18,13.79c.02-.07,0-.37,0-.48,0-.05-.14-.08-.18-.02-.03.05-.03.43,0,.48.03.07.17.09.19.01ZM7.62,13.26c-.06,0-.12.07-.09.13.04.1.42.48.53.44.03,0,.37-.32.4-.35.05-.06.09-.13.01-.19-.17-.08-.35.3-.46.28-.1,0-.29-.32-.38-.31ZM6.8,13.29s-.08.06-.08.1c-.02.11-.02.65,0,.77.02.13.15.17.2.04-.02-.26.03-.57,0-.82,0-.06-.06-.11-.12-.1ZM9.37,14.24v-.61c-.28-.18-.19.28-.18.43,0,.07-.04.13.01.19.05.07.15.05.17,0ZM3.17,14.16h.58s.02.03.03.01c.04-.02.04-.23-.01-.26h-.81l-.03.03v.84c.11.08.29.01.42.01.15,0,.31,0,.46,0-.01-.08.03-.19-.03-.25h-.6v-.38ZM10.73,14.55c0,.05-.03.26.03.27h.92s.03-.45.03-.53c0-.11,0-.28-.04-.37h-.94v.25h.62s.05.02.08.01l.02.37h-.72ZM7.57,13.99c-.06.02-.07.08-.05.13.03.06.27.31.34.36.05.04.1.09.16.11.04,0,.5-.43.51-.47.02-.08-.05-.17-.14-.14-.04.01-.28.34-.38.33-.13-.03-.31-.37-.43-.33ZM5.97,14.84l-.63-.6c-.07-.04-.17,0-.16.09l.02.05c.27.22.52.59.79.79.09.07.18.06.2-.07.02-.12.02-.75,0-.86-.03-.15-.23-.09-.23,0v.6ZM9.37,15.37v-.66s-.15-.1-.19-.01c-.02.04-.02.59,0,.65.03.08.13.08.18.02ZM7.61,14.69c-.08.03-.12.08-.08.16.02.03.39.41.41.42.1.06.18-.03.26-.1.07-.06.34-.29.34-.36,0-.04-.05-.12-.09-.11-.13.04-.32.35-.46.33-.08,0-.3-.33-.39-.33ZM6.95,14.83c0-.07-.05-.12-.12-.12s-.12.05-.12.12.05.12.12.12.12-.05.12-.12ZM1.58,14.76c-.14.03-.16.23-.05.26.29.09.28-.31.05-.26ZM13.29,14.88c0-.08-.06-.14-.14-.14s-.14.06-.14.14.06.14.14.14.14-.06.14-.14ZM5.83,15.67c-.08-.08-.52-.51-.59-.5-.06,0-.14.09-.08.14.32.3.62.63.97.89.09.01.12-.08.09-.16-.03-.06-.31-.31-.38-.38ZM2.34,15.52c0-.07-.06-.13-.13-.13s-.13.06-.13.13.06.13.13.13.13-.06.13-.13ZM6.78,15.39s-.03.03-.04.05c-.03.06-.03.63-.02.73.02.15.18.2.2.07.02-.09.02-.69,0-.79-.01-.07-.09-.07-.14-.05ZM7.71,15.44c-.06-.05-.17-.04-.18.05,0,.1.43.51.47.51.05,0,.11-.05.15-.08.05-.04.38-.37.38-.41,0-.06-.08-.14-.14-.12-.07.02-.29.33-.37.34-.04,0-.07-.03-.1-.06-.07-.05-.15-.18-.21-.23ZM12.63,15.54c0-.08-.06-.14-.14-.14s-.14.06-.14.14.06.14.14.14.14-.06.14-.14ZM9.4,15.91c0-.07-.05-.12-.12-.12s-.12.05-.12.12.05.12.12.12.12-.05.12-.12ZM5.38,16.28c-.05-.05-.37-.36-.39-.37-.03-.01-.11-.01-.13.02-.05.15.04.15.12.23.36.37.71.75,1.08,1.11.11.06.23-.04.15-.15-.29-.26-.55-.57-.82-.84ZM2.94,16.15c0-.08-.06-.14-.14-.14s-.14.06-.14.14.06.14.14.14.14-.06.14-.14ZM11.99,16.17c0-.08-.06-.14-.14-.14s-.14.06-.14.14.06.14.14.14.14-.06.14-.14ZM8.5,16.11c-.12-.1-.36.28-.48.31-.08,0-.28-.29-.37-.31-.03,0-.06,0-.09.02-.03.02-.03.05-.03.08,0,.09.4.47.51.51.03,0,.46-.44.48-.47.02-.04.01-.1-.02-.13ZM9.19,16.48v.72s.15.11.19-.03c.02-.07.02-.61,0-.68-.01-.03-.03-.06-.07-.07-.04-.01-.11.02-.12.06ZM3.31,16.66c-.12.12.07.35.21.22.15-.14-.09-.34-.21-.22ZM11.35,16.8c0-.08-.06-.14-.14-.14s-.14.06-.14.14.06.14.14.14.14-.06.14-.14ZM6.8,16.7s-.07.07-.08.12c-.02.14-.02.62,0,.77.02.18.2.23.23,0,.02-.17.02-.58,0-.75,0-.08-.05-.17-.14-.14ZM8.41,16.79c-.06.02-.33.35-.39.35-.13-.04-.33-.41-.46-.32-.02.01-.04.06-.04.09.01.07.44.53.52.51.09-.13.42-.33.48-.45.04-.09,0-.21-.11-.18ZM5.95,18.11v.69l-.81-.8c-.23-.03-.17.11-.06.23.26.27.58.57.85.83.05.04.04.1.13.1.1,0,.11-.04.12-.13.03-.19.02-.72,0-.93,0-.03,0-.07-.02-.09-.26-.25-.51-.52-.77-.76-.04-.04-.26-.23-.28-.24-.11-.01-.16.1-.09.18l.94.92ZM8.5,17.52s-.09-.02-.11,0c-.07.07-.29.31-.37.32-.15,0-.33-.43-.48-.28-.1.1.12.23.17.28s.26.29.32.29c.02,0,.03,0,.05-.02.08-.13.45-.35.46-.49,0-.03,0-.08-.03-.1ZM9.36,18.68s.03-.09.03-.14c.02-.21.02-.64,0-.84-.02-.17-.18-.16-.2-.04.03.29-.04.67,0,.95.01.11.08.13.18.07ZM6.95,18.28c0-.07-.05-.12-.12-.12s-.12.05-.12.12.05.12.12.12.12-.05.12-.12ZM8.5,18.24s-.04-.02-.05-.02c-.1,0-.31.3-.43.35-.13.01-.38-.57-.51-.26,0,.03.02.06.03.08.07.08.23.24.3.31.08.07.15.14.26.08.02-.01.38-.37.4-.4.03-.04.03-.1,0-.14Z"/>
      <path class="cls-1" d="M2.7,10.5c-.06-.01-.17-.12-.11-.2.26-.35.59-.67.83-1.03.16-.23.14-.39.17-.65-.09-.01-.35.04-.36-.08l.22-1.31c-.02-.06-.3-.17-.37-.22-.23-.13-.48-.28-.7-.43C0,4.96-.27,2.14,1.74.06c.03-.03.05-.06.09-.06-.17,1.15-.08,2.27.59,3.24.56.81,1.42,1.31,2.34,1.65.13-.15.3-.29.47-.42.51-.39,1.1-.67,1.72-.84.11-.03.23-.04.34-.04h0c.06,0,.13.01.19.03.72.18,1.36.54,1.94,1,.06.04.23.22.26.24.07.03.33-.08.42-.12,1.55-.63,2.54-1.81,2.63-3.52.02-.41-.05-.8-.09-1.21,1.49,1.31,1.92,3.46.85,5.18-.6.95-1.49,1.53-2.47,2.04l.24,1.32c-.01.1-.28.08-.36.08.05.42.12.86.27,1.26s.43.83.83,1c.14.06.41.05.36.25-.05.18-.48-.02-.59-.07-.82-.45-1.03-1.59-1.15-2.44h-.41l.11,9.73,3.71-3.68-.03-.04c-.23-.1-.5-.33-.72-.41-.03-.01-.06-.02-.09,0l-2.21,2.18c-.18.09-.29-.08-.16-.23l2.14-2.12-.54-.37c-.1-.02-.25.3-.4.13-.16-.18.27-.31.26-.39l-.73-.92h-.33v.71s.03.03.02.06c-.06,0-.22.03-.25-.04v-.95c0-.08-.04-.56,0-.6.08,0,.36.02.34-.04-.01-.02-.15-.24-.16-.25-.06-.04-.2.03-.22-.12s.29-.15.35-.11c.07.05.29.53.38.63v.08s-.02.04-.02.04h-.46v.34h.45s1.05,1.27,1.05,1.27l1.77,1.03.03.04-4.46,4.47-.14-8.35-.72.69c-.01.06.36.57.38.7s-.12.2-.22.15c-.07-.03-.15-.26-.2-.34-.3-.49-.71-.89-1.27-1.07v.55s-.04.07-.05.08l-1.25.02c-.21-.12-.04-.38-.36-.2-.74.41-.82,1.12-.88,1.88-.01.14.07.51-.17.46-.15-.03-.11-.38-.1-.51.04-.88.19-1.58.99-2.06.11-.07.4-.25.52-.16.08.06.04.32.2.32h.44v-2.6l-2.65-.02v1.28c.27.38.62.71.87,1.11l-.03.13h-.21s-.63-.75-.63-.75c0,.21,0,.43,0,.65-.04,1.47,0,3-.09,4.46,0,.05-.03.25-.04.27-.06.06-.22.04-.24-.05l.06-7.09h-.41c0,.31-.01.51-.19.77s-.44.51-.63.77c-.02.02-.04.03-.03.07h.62c.05,0,.13.07.11.14-.02.1-.23.4-.3.48l-1.11,1.06s.06.02.08.02c.19-.01.39-.01.59-.02l.27-.33c.11-.03.2,0,.2.12,0,.13-.29.36-.33.49-.05.17,0,.62,0,.83,0,.07-.02.14-.04.21l-1.35.74,2.19,2.27c.03.14-.05.25-.19.17l-2.27-2.3-1,.52,3.68,3.7.04-1.45c.07-.18.27-.17.29.04.04.4-.01.82-.02,1.22,0,.3.02.6-.02.89L0,14.56l2.84-1.53v-.79s-.86.04-.97-.04l-.03-.1,1.52-1.6c-.18-.03-.48.04-.64,0ZM.77,3.48h.4c.07,0,.09.2-.02.2h-.35l.12.43h.55v.18h-.52l.18.42.67.03s.02.16-.02.18h-.51l.31.45h.75s.07.07.06.1c-.02.18-.51.07-.63.1l.42.4c.28,0,.59-.03.86-.01.04,0,.16.02.2.03.08.03.02.18-.02.18h-.8c.09.13,1.12.77,1.18.72.21-.63.52-1.23.93-1.76-1.32-.5-2.49-1.44-2.9-2.83-.13-.43-.15-.86-.18-1.31l-.36.58-.21.59c.1.03.32-.04.29.13-.02.15-.3.03-.35.1l-.06.43c.51-.06.53.27,0,.2l.02.45ZM13.41,3.1c.1-.02.24.01.35,0,0-.76-.22-1.45-.65-2.07-.01-.02,0-.04-.05-.03,0,.25-.01.51-.05.75-.18,1.36-1.07,2.4-2.26,3.04-.25.13-.52.23-.77.36.41.53.72,1.13.96,1.75.67-.34,1.3-.72,1.81-1.29.57-.63.96-1.44.98-2.31h-.18c-.07,1.11-.97,1.98-1.89,2.49-.08.05-.47.25-.53.26-.06,0-.14-.04-.14-.1,0-.1.39-.25.49-.3.85-.48,1.79-1.3,1.86-2.35,0-.06-.07-.19.05-.21ZM3.6,8.3h7.28l-.21-1.08h-2.77c-.09-.01-.16-.09-.17-.18,0,0,.09-2.89.05-2.99-.37-.18-.69-.17-1.1,0l.02,3c0,.09-.07.17-.17.17h-2.71s-.06.16-.08.2c-.08.29-.11.59-.16.89ZM6.4,6.9l-.06-2.74c-.74.36-1.41.87-1.87,1.57-.24.36-.41.75-.54,1.16h2.47ZM10.57,6.9c-.36-1.21-1.28-2.2-2.43-2.72l-.06,2.72h2.49ZM8.33,9.62c.07-.05.38.36.46.39l.27-.27c.09.07.2.46.31.43.22-.06-.22-.53-.21-.61.04-.11.43-.43.4-.52-.06-.23-.37.28-.42.3-.18-.04-.68.13-.81.05-.08-.04-.33-.38-.42-.36-.02,0-.05.04-.06.06,0,.02,0,.03,0,.05.03.07.37.33.37.37-.08.13-.15.27-.19.41-.02.06-.07.14-.03.19l.07.03c.11-.03.2-.4.25-.51Z"/>
      <path class="cls-1" d="M8.06,12.42l.03-.34c.07-.03.14-.05.2,0,.08.07,0,.25.06.37.02.06.39.35.16.39-.1.01-.71-.26-.82-.33-.16-.09-.27-.22-.42-.33-.24.2-.45.37-.74.5-.08.04-.39.17-.46.18-.03,0-.05,0-.08-.01-.17-.09.2-.33.22-.41.04-.13-.08-.43.15-.39.19.03.05.38.14.38.3-.14.53-.35.77-.57.26.22.48.43.8.54Z"/>
      <path class="cls-1" d="M5.95,18.11l-.94-.92c-.07-.08-.02-.19.09-.18.02,0,.24.2.28.24.27.24.51.52.77.76.02.03.02.06.02.09.02.2.03.73,0,.93-.01.09-.02.13-.12.13-.09,0-.08-.06-.13-.1-.27-.26-.6-.56-.85-.83-.11-.12-.17-.26.06-.23l.81.8v-.69Z"/>
      <path class="cls-1" d="M10.73,14.55h.72l-.02-.37s-.06-.01-.08-.01h-.62v-.25h.94c.05.09.04.26.04.37,0,.07,0,.5-.03.52h-.92c-.06,0-.02-.21-.03-.26Z"/>
      <path class="cls-1" d="M3.17,14.16v.38h.6c.06.06.02.17.03.25-.15,0-.77.07-.88-.01v-.84l.03-.03h.81c.05.03.05.24.01.26-.02.01-.03-.01-.03-.01h-.58Z"/>
      <path class="cls-1" d="M5.09,9.07c.52-.04,1.1.07,1.58.28-.38.3-.86.33-1.27.05-.05-.03-.37-.28-.31-.34Z"/>
      <path class="cls-1" d="M5.97,14.84v-.6c0-.09.2-.15.23,0,.02.11.02.74,0,.86-.02.13-.11.14-.2.07-.27-.21-.52-.57-.79-.79l-.02-.05c0-.09.09-.13.16-.09l.63.6Z"/>
      <path class="cls-1" d="M5.38,16.28c.28.27.53.58.82.84.08.11-.04.21-.15.15-.37-.36-.72-.74-1.08-1.11-.07-.07-.17-.08-.12-.23.02-.03.1-.03.13-.02.03,0,.34.32.39.37Z"/>
      <path class="cls-1" d="M5.83,15.67c.07.07.36.32.38.38.03.07,0,.17-.09.16-.35-.26-.65-.59-.97-.89-.06-.06.03-.14.08-.14.07,0,.5.42.59.5Z"/>
      <path class="cls-1" d="M8.41,16.79c.1-.03.15.09.11.18-.05.12-.39.32-.48.45-.08.02-.51-.44-.52-.51,0-.02.02-.07.04-.09.13-.08.34.28.46.32.06,0,.33-.34.39-.35Z"/>
      <path class="cls-1" d="M8.5,17.52s.03.07.03.1c-.01.14-.38.36-.46.49-.01.01-.03.02-.05.02-.06,0-.26-.24-.32-.29s-.27-.18-.17-.28c.15-.15.34.27.48.28.08,0,.3-.25.37-.32.02-.02.09,0,.11,0Z"/>
      <path class="cls-1" d="M7.61,14.69c.08,0,.3.32.39.33.14.01.33-.3.46-.33.04-.01.09.07.09.11,0,.07-.27.31-.34.36-.08.07-.16.16-.26.1-.03-.02-.4-.39-.41-.42-.04-.08,0-.13.08-.16Z"/>
      <path class="cls-1" d="M7.62,13.26c.1,0,.29.3.38.31.12.01.29-.37.46-.28.08.06.04.13-.01.19-.03.04-.37.34-.4.35-.11.03-.49-.35-.53-.44-.03-.06.04-.12.09-.13Z"/>
      <path class="cls-1" d="M7.71,15.44c.06.05.14.18.21.23.03.02.06.06.1.06.07,0,.29-.32.37-.34.06-.02.14.06.14.12,0,.03-.33.36-.38.41-.04.03-.1.08-.15.08-.04,0-.47-.41-.47-.51,0-.09.11-.1.18-.05Z"/>
      <path class="cls-1" d="M8.5,16.11s.03.09.02.13c-.01.03-.45.47-.48.47-.11-.04-.5-.42-.51-.51,0-.03,0-.06.03-.08.03-.02.06-.03.09-.02.08.02.29.31.37.31.13-.03.36-.41.48-.31Z"/>
      <path class="cls-1" d="M7.57,13.99c.12-.03.31.3.43.33.11.01.34-.32.38-.33.09-.03.16.05.14.14,0,.04-.47.47-.51.47-.06-.03-.11-.07-.16-.11-.07-.06-.31-.3-.34-.36-.02-.05,0-.12.05-.13Z"/>
      <path class="cls-1" d="M8.5,18.24s.03.1,0,.14c-.01.02-.37.38-.4.4-.11.06-.18-.01-.26-.08-.08-.06-.24-.23-.3-.31-.02-.02-.03-.05-.03-.08.13-.32.38.27.51.26.11-.05.32-.35.43-.35.02,0,.04,0,.05.02Z"/>
      <path class="cls-1" d="M6.8,16.7c.09-.03.13.07.14.14.02.17.02.57,0,.75-.02.23-.21.18-.23,0-.02-.14-.02-.63,0-.77,0-.05.04-.1.08-.12Z"/>
      <path class="cls-1" d="M9.36,18.68c-.09.05-.16.04-.18-.07-.04-.29.03-.66,0-.95.02-.12.18-.13.2.04.02.2.02.63,0,.84,0,.05-.01.1-.03.14Z"/>
      <path class="cls-1" d="M6.8,13.29c.06-.01.11.03.12.1.03.25-.03.56,0,.82-.05.13-.19.09-.2-.04-.02-.12-.02-.66,0-.77,0-.03.05-.09.08-.1Z"/>
      <path class="cls-1" d="M6.78,15.39c.06-.02.13-.01.14.05.02.1.02.7,0,.79-.03.14-.19.09-.2-.07-.01-.1-.01-.67.02-.73,0-.02.02-.04.04-.05Z"/>
      <path class="cls-1" d="M9.19,16.48s.08-.07.12-.06c.04,0,.06.03.07.07.02.07.02.61,0,.68-.04.14-.19.07-.19.03v-.72Z"/>
      <path class="cls-1" d="M9.37,15.37c-.06.06-.15.06-.18-.02-.02-.06-.03-.61,0-.65.04-.09.19-.03.19.01v.66Z"/>
      <path class="cls-1" d="M9.37,14.24c-.02.06-.12.08-.17,0-.05-.06,0-.13-.01-.19-.01-.15-.1-.61.18-.43v.61Z"/>
      <path class="cls-1" d="M6.18,13.79c-.02.08-.16.06-.19-.01-.02-.05-.02-.44,0-.48.04-.06.18-.03.18.02,0,.1.02.4,0,.48Z"/>
      <path class="cls-1" d="M3.31,16.66c.12-.12.37.08.21.22-.14.12-.33-.1-.21-.22Z"/>
      <path class="cls-1" d="M1.58,14.76c.23-.05.24.35-.05.26-.11-.03-.09-.24.05-.26Z"/>
      <circle class="cls-1" cx="2.8" cy="16.15" r=".14"/>
      <circle class="cls-1" cx="11.85" cy="16.17" r=".14"/>
      <circle class="cls-1" cx="11.21" cy="16.8" r=".14"/>
      <circle class="cls-1" cx="12.49" cy="15.54" r=".14"/>
      <circle class="cls-1" cx="13.15" cy="14.88" r=".14"/>
      <circle class="cls-1" cx="2.21" cy="15.52" r=".13"/>
      <circle class="cls-1" cx="6.83" cy="14.83" r=".12"/>
      <circle class="cls-1" cx="9.28" cy="15.91" r=".12"/>
      <circle class="cls-1" cx="6.83" cy="18.28" r=".12"/>
      <circle class="cls-1" cx="7.23" cy="7.79" r=".15"/>
      <circle class="cls-1" cx="7.24" cy="5.61" r=".14"/>
      <circle class="cls-1" cx="7.24" cy="4.8" r=".14"/>
      <circle class="cls-1" cx="7.24" cy="6.42" r=".13"/>
      <circle class="cls-1" cx="5.38" cy="7.79" r=".12"/>
      <circle class="cls-1" cx="9.14" cy="7.79" r=".12"/>
      <circle class="cls-1" cx="8.21" cy="7.79" r=".12"/>
      <circle class="cls-1" cx="10.04" cy="7.79" r=".12"/>
      <circle class="cls-1" cx="6.28" cy="7.79" r=".12"/>
      <circle class="cls-1" cx="4.48" cy="7.79" r=".11"/>
      <path class="cls-1" d="M9.01,9.48l-.24.29-.24-.24c0-.05.42-.06.47-.06Z"/>
      <path class="cls-1" d="M4.28,18.87l2.57,2.63.37.38c.05.05.14.05.19,0,1.16-1.21,2.32-2.43,3.49-3.64l.49-.52c.12-.13-.07-.32-.19-.19-1.16,1.21-2.32,2.43-3.49,3.64l-.49.52h.19c-.86-.88-1.71-1.75-2.57-2.63l-.37-.38c-.12-.12-.31.07-.19.19h0Z"/>
    </g>
  </g>
</svg>